 <svg xmlns="http://www.w3.org/2000/svg" xmlns:xlink="http://www.w3.org/1999/xlink" id="Layer_1" x="0px" y="0px" viewBox="0 0 294.7 99.6" xml:space="preserve">
              <g>
              <g>
              <path fill="#006FBA" d="M41.1,67.5l-5.5-11.7h-12l11.5,24.4l-3.3,7c-0.4,0.8-1.3,1.4-2.3,1.4H11v-77h18.5l5-10.9H0v98.8h32.4    c3.4,0,6.5-2,7.9-5l2.8-5.9l15.5-32.8h-12L41.1,67.5z"></path>
              <path fill="#006FBA" d="M48.4,0c-3.4,0-6.5,1.9-7.9,5L22.1,43.8h12L39.6,32l5.6,11.7h12L45.7,19.4l3.3-7c0.4-0.9,1.3-1.4,2.3-1.4    h18.6v77H51.4l-5.1,10.9h34.5V0H48.4z"></path>
              </g>
              <g>
              <path fill="#21294E" d="M285,13.2h7.5v36.2H285V13.2z M249,49.5V13.2h17.6c4,0,6.9,0.8,8.8,2.5c1.9,1.7,2.9,4.3,2.9,7.7    c0,2.2-0.5,4.1-1.4,5.5c-0.9,1.5-2.3,2.5-4,3c1.6,0.6,2.7,1.4,3.4,2.6c0.7,1.1,1,2.9,1.1,5.4l0.1,4.3v0.1c0.1,2.2,0.5,3.5,1.4,3.9    v1.1h-8.2c-0.3-0.5-0.5-1.1-0.6-1.9c-0.1-0.7-0.2-1.6-0.3-2.7l-0.1-3.8c-0.1-2.2-0.5-3.8-1.3-4.6c-0.8-0.8-2.1-1.2-4.1-1.2h-7.9    v14.1H249z M256.4,29.1h8.8c1.9,0,3.3-0.4,4.2-1.2c0.9-0.8,1.3-2,1.3-3.6c0-1.6-0.4-2.8-1.3-3.6c-0.9-0.8-2.2-1.2-3.9-1.2h-9.1    V29.1z M215.7,49.5V13.2H242v6.3h-19v7.7h17.3v6.2h-17.3v9.3h19.8v6.7H215.7z M171.8,49.5V13.2h11l7.2,27.6l7.1-27.6h11.1v36.2h-7    V20.2l-7.4,29.2h-7.6l-7.5-29.2v29.2H171.8z M156.4,49.5h-7.5V36l-13.2-22.7h9.1l7.7,15.6l7.2-15.6h8.5L156.4,36V49.5z     M102.8,49.5V13.2h7.5v13.5h15V13.2h7.5v36.2h-7.5V33.4h-15v16.1H102.8z"></path>
              <polygon fill="#21294E" points="103.2,85.9 103.2,62 120.7,62 120.7,66 108,66 108,71.3 119.8,71.3 119.8,75.4 108,75.4 108,81.9     121.1,81.9 121.1,85.9   "></polygon>
              <polygon fill="#21294E" points="125.3,85.9 125.3,62.2 130,62.2 130,81.9 141.8,81.9 141.8,85.9   "></polygon>
              <polygon fill="#21294E" points="145.2,85.9 145.2,62 162.7,62 162.7,66 150,66 150,71.3 161.8,71.3 161.8,75.4 150,75.4 150,81.9     163.1,81.9 163.1,85.9   "></polygon>
              <polygon fill="#21294E" points="173.2,85.9 164.7,62 169.9,62 175.9,79.7 181.6,62 186.7,62 178.2,85.9   "></polygon>
              <path fill="#21294E" d="M207.9,85.9h-5.2l-2.1-5.4h-9.4l-1.9,5.4h-5l9.2-24h5L207.9,85.9z M199.1,76.4l-3.2-8.9l-3.2,8.9H199.1z"></path>
              <polygon fill="#21294E" points="213.2,85.9 213.2,66 206.3,66 206.3,62 225,62 225,66 218,66 218,85.9   "></polygon>
              <path fill="#21294E" d="M226.5,74.1c0-2.4,0.4-4.5,1.1-6.1c0.5-1.2,1.3-2.3,2.2-3.3c0.9-1,1.9-1.7,3-2.2c1.5-0.6,3.2-0.9,5.1-0.9    c3.5,0,6.2,1.1,8.3,3.3c2.1,2.2,3.1,5.2,3.1,9.1c0,3.9-1,6.9-3.1,9.1c-2.1,2.2-4.8,3.3-8.3,3.3c-3.5,0-6.3-1.1-8.3-3.3    S226.5,77.9,226.5,74.1 M231.4,73.9c0,2.7,0.6,4.8,1.8,6.2c1.2,1.4,2.8,2.1,4.7,2.1c1.9,0,3.4-0.7,4.7-2.1    c1.2-1.4,1.8-3.5,1.8-6.3c0-2.7-0.6-4.8-1.8-6.1c-1.2-1.4-2.8-2-4.7-2c-2,0-3.5,0.7-4.7,2.1C232,69.1,231.4,71.2,231.4,73.9"></path>
              <path fill="#21294E" d="M253,85.9V62h10c2.5,0,4.3,0.2,5.5,0.6c1.1,0.4,2.1,1.2,2.7,2.3c0.7,1.1,1,2.4,1,3.8    c0,1.8-0.5,3.3-1.6,4.5c-1,1.2-2.6,1.9-4.7,2.2c1,0.6,1.9,1.3,2.5,2c0.7,0.7,1.6,2,2.7,3.9l2.9,4.7h-5.7l-3.4-5.2    c-1.2-1.9-2.1-3-2.5-3.5c-0.4-0.5-0.9-0.8-1.4-1c-0.5-0.2-1.3-0.3-2.4-0.3h-1v10H253z M257.8,72.1h3.5c2.3,0,3.7-0.1,4.3-0.3    c0.6-0.2,1-0.5,1.3-1c0.3-0.5,0.5-1.1,0.5-1.8c0-0.8-0.2-1.5-0.6-2c-0.4-0.5-1-0.8-1.8-0.9c-0.4-0.1-1.5-0.1-3.5-0.1h-3.7V72.1z"></path>
              <path fill="#21294E" d="M275.5,78.1l4.6-0.5c0.3,1.6,0.8,2.7,1.7,3.5c0.9,0.7,2,1.1,3.4,1.1c1.5,0,2.7-0.3,3.5-1    c0.8-0.7,1.2-1.4,1.2-2.3c0-0.6-0.2-1-0.5-1.4c-0.3-0.4-0.9-0.7-1.7-1c-0.6-0.2-1.8-0.5-3.8-1c-2.5-0.6-4.3-1.4-5.4-2.4    c-1.4-1.3-2.2-2.9-2.2-4.8c0-1.2,0.3-2.4,1-3.4c0.7-1.1,1.7-1.9,2.9-2.4c1.3-0.6,2.8-0.8,4.6-0.8c3,0,5.2,0.7,6.7,2    c1.5,1.3,2.3,3.1,2.4,5.3l-4.8,0.2c-0.2-1.2-0.6-2.1-1.3-2.7c-0.7-0.5-1.7-0.8-3-0.8c-1.4,0-2.5,0.3-3.2,0.9    c-0.5,0.4-0.8,0.9-0.8,1.5c0,0.6,0.2,1.1,0.7,1.5c0.6,0.5,2.1,1,4.4,1.6s4,1.1,5.1,1.7c1.1,0.6,2,1.4,2.6,2.4    c0.6,1,0.9,2.3,0.9,3.8c0,1.4-0.4,2.7-1.1,3.9c-0.7,1.2-1.8,2.1-3.2,2.7c-1.4,0.6-3.1,0.9-5.1,0.9c-3,0-5.3-0.7-6.9-2.1    C276.8,82.8,275.9,80.8,275.5,78.1"></path>
              </g>
              </g>
              </svg>