 <svg xmlns="http://www.w3.org/2000/svg" xmlns:xlink="http://www.w3.org/1999/xlink" id="Layer_1" x="0px" y="0px" viewBox="0 0 294.7 100.3" xml:space="preserve">
            <g>
              <path fill="#006FBA" d="M41.5,68l-5.6-11.8H23.8l11.6,24.6l-3.3,7.1c-0.4,0.9-1.3,1.4-2.3,1.4H11V11.7h18.7l5.1-11H0v99.6h32.7   c3.4,0,6.5-2,8-5.1l2.8-6l15.7-33.1H47.1L41.5,68z"></path>
              <path fill="#006FBA" d="M48.8,0c-3.4,0-6.5,1.9-8,5.1L22.3,44.1h12.1L40,32.3l5.6,11.8h12.1L46,19.5l3.3-7.1   c0.4-0.9,1.3-1.5,2.3-1.5h18.8v77.6H51.8l-5.1,11h34.8V0H48.8z"></path>
            </g>
            <g>
              <path fill="#21294E" d="M287.2,17.9h7.5v36.4h-7.5V17.9z M251,54.3V17.9h17.6c4,0,6.9,0.8,8.8,2.5c1.9,1.7,2.9,4.3,2.9,7.8   c0,2.2-0.5,4.1-1.4,5.6c-0.9,1.5-2.3,2.5-4,3c1.6,0.6,2.7,1.4,3.4,2.6c0.7,1.2,1,2.9,1.1,5.4l0.1,4.3v0.1c0.1,2.2,0.5,3.5,1.4,4   v1.1h-8.2c-0.3-0.5-0.5-1.1-0.6-1.9c-0.1-0.8-0.2-1.6-0.3-2.7l-0.1-3.8c-0.1-2.3-0.5-3.8-1.3-4.6c-0.8-0.8-2.2-1.2-4.1-1.2h-7.9   v14.2H251z M258.5,33.8h8.8c1.9,0,3.3-0.4,4.2-1.2c0.9-0.8,1.3-2,1.3-3.7c0-1.6-0.4-2.8-1.3-3.6c-0.9-0.8-2.2-1.2-3.9-1.2h-9.1   V33.8z M217.6,54.3V17.9H244v6.3h-19V32h17.4v6.2H225v9.4h19.9v6.7H217.6z M173.5,54.3V17.9h11.1l7.2,27.7l7.1-27.7h11.1v36.4h-7   V25l-7.4,29.4H188L180.5,25v29.4H173.5z M158,54.3h-7.5V40.7l-13.2-22.8h9.2l7.8,15.7l7.2-15.7h8.5l-12,22.8V54.3z M104.2,54.3   V17.9h7.5v13.6h15V17.9h7.5v36.4h-7.5V38.2h-15v16.1H104.2z"></path>
              <path fill="#21294E" d="M119.4,82.1h-3.5l-1.4-3.6h-6.3l-1.3,3.6h-3.4l6.1-16h3.4L119.4,82.1z M113.5,75.8l-2.2-5.9l-2.1,5.9H113.5   z"></path>
              <path fill="#21294E" d="M121,66.1h3.2v8.7c0,1.4,0,2.3,0.1,2.7c0.1,0.7,0.5,1.2,1,1.6c0.5,0.4,1.2,0.6,2.1,0.6c0.9,0,1.6-0.2,2-0.6   c0.5-0.4,0.7-0.8,0.8-1.4c0.1-0.5,0.1-1.5,0.1-2.7v-8.9h3.2v8.4c0,1.9-0.1,3.3-0.3,4.1c-0.2,0.8-0.5,1.5-0.9,2   c-0.5,0.5-1.1,1-1.8,1.3c-0.8,0.3-1.8,0.5-3,0.5c-1.5,0-2.6-0.2-3.4-0.5c-0.8-0.4-1.4-0.8-1.8-1.4c-0.5-0.6-0.7-1.2-0.9-1.8   c-0.2-0.9-0.3-2.3-0.3-4.1V66.1z"></path>
              <polygon fill="#21294E" points="136.9,82.1 136.9,66.1 147.7,66.1 147.7,68.8 140.1,68.8 140.1,72.6 146.7,72.6 146.7,75.3    140.1,75.3 140.1,82.1  "></polygon>
              <polygon fill="#21294E" points="149,82.1 149,79.2 157.2,68.8 149.9,68.8 149.9,66.1 161.4,66.1 161.4,68.6 152.8,79.4 161.7,79.4    161.7,82.1  "></polygon>
              <path fill="#21294E" d="M163.7,66.1h3.2v8.7c0,1.4,0,2.3,0.1,2.7c0.1,0.7,0.5,1.2,1,1.6c0.5,0.4,1.2,0.6,2.1,0.6   c0.9,0,1.6-0.2,2-0.6c0.5-0.4,0.7-0.8,0.8-1.4c0.1-0.5,0.1-1.5,0.1-2.7v-8.9h3.2v8.4c0,1.9-0.1,3.3-0.3,4.1c-0.2,0.8-0.5,1.5-0.9,2   c-0.5,0.5-1.1,1-1.8,1.3c-0.8,0.3-1.8,0.5-3,0.5c-1.5,0-2.6-0.2-3.4-0.5c-0.8-0.4-1.4-0.8-1.8-1.4c-0.5-0.6-0.7-1.2-0.9-1.8   c-0.2-0.9-0.3-2.3-0.3-4.1V66.1z"></path>
              <polygon fill="#21294E" points="179.6,82.1 179.6,66.1 191.3,66.1 191.3,68.8 182.8,68.8 182.8,72.4 190.7,72.4 190.7,75.1    182.8,75.1 182.8,79.4 191.6,79.4 191.6,82.1  "></polygon>
              <path fill="#21294E" d="M201.6,76.3v-2.7h6.8v6.4c-0.7,0.7-1.6,1.2-2.9,1.7c-1.3,0.5-2.5,0.7-3.8,0.7c-1.6,0-3.1-0.4-4.3-1.1   c-1.2-0.7-2.1-1.7-2.8-3c-0.6-1.3-0.9-2.7-0.9-4.3c0-1.7,0.3-3.1,1-4.4c0.7-1.3,1.7-2.3,3-3c1-0.5,2.3-0.8,3.8-0.8   c2,0,3.5,0.4,4.6,1.3c1.1,0.8,1.8,2,2.1,3.5l-3.2,0.6c-0.2-0.8-0.6-1.4-1.2-1.9c-0.6-0.5-1.4-0.7-2.3-0.7c-1.4,0-2.5,0.4-3.3,1.3   c-0.8,0.9-1.2,2.2-1.2,4c0,1.9,0.4,3.3,1.2,4.3c0.8,0.9,1.9,1.4,3.3,1.4c0.7,0,1.3-0.1,2-0.4c0.7-0.3,1.2-0.6,1.7-1v-2H201.6z"></path>
              <polygon fill="#21294E" points="211.3,82.1 211.3,66.1 223,66.1 223,68.8 214.5,68.8 214.5,72.4 222.4,72.4 222.4,75.1 214.5,75.1    214.5,79.4 223.3,79.4 223.3,82.1  "></polygon>
              <path fill="#21294E" d="M239.4,76.3v-2.7h6.8v6.4c-0.7,0.7-1.6,1.2-2.9,1.7c-1.3,0.5-2.5,0.7-3.8,0.7c-1.6,0-3.1-0.4-4.3-1.1   c-1.2-0.7-2.1-1.7-2.8-3c-0.6-1.3-0.9-2.7-0.9-4.3c0-1.7,0.3-3.1,1-4.4c0.7-1.3,1.7-2.3,3-3c1-0.5,2.3-0.8,3.8-0.8   c2,0,3.5,0.4,4.6,1.3c1.1,0.8,1.8,2,2.1,3.5l-3.2,0.6c-0.2-0.8-0.6-1.4-1.2-1.9c-0.6-0.5-1.4-0.7-2.3-0.7c-1.4,0-2.5,0.4-3.3,1.3   c-0.8,0.9-1.2,2.2-1.2,4c0,1.9,0.4,3.3,1.2,4.3c0.8,0.9,1.9,1.4,3.3,1.4c0.7,0,1.3-0.1,2-0.4c0.7-0.3,1.2-0.6,1.7-1v-2H239.4z"></path>
              <path fill="#21294E" d="M248.9,70.5h2.8v1.6c1-1.2,2.2-1.8,3.5-1.8c0.7,0,1.4,0.2,1.9,0.5c0.5,0.3,1,0.8,1.3,1.4   c0.5-0.6,1-1.1,1.6-1.4c0.6-0.3,1.2-0.5,1.9-0.5c0.8,0,1.5,0.2,2.1,0.5s1,0.9,1.3,1.5c0.2,0.5,0.3,1.3,0.3,2.4v7.4h-3v-6.6   c0-1.2-0.1-1.9-0.3-2.2c-0.3-0.4-0.7-0.7-1.3-0.7c-0.4,0-0.8,0.1-1.2,0.4c-0.4,0.3-0.6,0.6-0.8,1.2c-0.2,0.5-0.2,1.3-0.2,2.4v5.6   h-3v-6.4c0-1.1-0.1-1.9-0.2-2.2c-0.1-0.3-0.3-0.6-0.5-0.7c-0.2-0.2-0.5-0.2-0.9-0.2c-0.5,0-0.9,0.1-1.3,0.4   c-0.4,0.3-0.6,0.6-0.8,1.1c-0.2,0.5-0.2,1.3-0.2,2.4v5.6h-3V70.5z"></path>
              <path fill="#21294E" d="M268.5,82.1v-16h3v5.8c0.9-1.1,2-1.6,3.3-1.6c1.4,0,2.5,0.5,3.4,1.5c0.9,1,1.4,2.5,1.4,4.4   c0,2-0.5,3.5-1.4,4.6c-0.9,1.1-2,1.6-3.4,1.6c-0.7,0-1.3-0.2-1.9-0.5c-0.6-0.3-1.2-0.8-1.6-1.5v1.7H268.5z M271.5,76.1   c0,1.2,0.2,2.1,0.6,2.7c0.5,0.8,1.2,1.2,2.1,1.2c0.7,0,1.2-0.3,1.7-0.9c0.5-0.6,0.7-1.5,0.7-2.7c0-1.3-0.2-2.3-0.7-2.9   c-0.5-0.6-1.1-0.9-1.8-0.9c-0.7,0-1.3,0.3-1.8,0.9C271.8,74.1,271.5,74.9,271.5,76.1"></path>
              <polygon fill="#21294E" points="282.1,82.1 282.1,66.1 285.3,66.1 285.3,72.4 291.5,72.4 291.5,66.1 294.7,66.1 294.7,82.1    291.5,82.1 291.5,75.1 285.3,75.1 285.3,82.1  "></polygon>
            </g>
            </svg>