            <svg xmlns="http://www.w3.org/2000/svg" xmlns:xlink="http://www.w3.org/1999/xlink" id="Layer_1" x="0px" y="0px" viewBox="0 0 291.05 59.98" xml:space="preserve"><g>	<g>		<polygon fill="#231F20" points="13.05,59.68 13.15,59.68 26.04,59.68 31.86,36.33 18.87,36.33   "/>		<polygon fill="#231F20" points="118.5,36.33 115.26,23.35 109.44,0 101.72,0 101.72,0 96.55,0 88.84,0 83.57,0 71.92,46.71    65.45,46.71 53.81,0 47.36,0 40.82,0 34.48,0 34.48,0 27.93,0 22.11,23.35 35.1,23.35 37.69,12.97 44.05,12.97 55.7,59.68    62.28,59.68 68.69,59.68 68.69,59.68 75.16,59.68 81.67,59.68 93.32,12.97 99.69,12.97 102.27,23.35 105.51,36.33 111.33,59.68    124.28,59.68 124.32,59.68   "/>	</g>	<polygon fill="#FFCA05" points="137.31,0 124.32,0 124.32,19.78 120.72,23.38 115.26,23.35 118.5,36.33 120.72,36.33 124.32,40.02   124.32,59.52 124.32,59.68 137.31,59.68 137.31,35.41 131.78,29.84 137.31,24.31  "/>	<polygon fill="#FFCA05" points="34.93,23.35 24.6,23.35 21.95,23.35 16.63,23.38 12.99,19.99 12.99,19.99 12.99,0 0,0 0,24.07   5.77,29.84 0,35.44 0,59.68 12.89,59.68 12.99,59.68 12.99,59.27 12.99,39.85 12.99,39.85 16.63,36.37 18.71,36.33 21.36,36.33   31.7,36.33 105.61,36.33 102.37,23.35  "/>	<g>		<g>			<path fill="#231F20" d="M279.15,7.7c0,1.63-0.46,3.05-1.37,4.27c-0.91,1.22-2.18,2.14-3.82,2.77l8,9.56h-7.37l-6.68-8.43h-1.1    v8.43h-5.99V0h7.74c1.51,0,2.91,0.16,4.2,0.47c1.29,0.32,2.41,0.79,3.36,1.42c0.95,0.63,1.69,1.43,2.23,2.39    C278.88,5.25,279.15,6.39,279.15,7.7z M273.38,7.81c0-1.1-0.43-1.9-1.28-2.43c-0.85-0.52-2.04-0.78-3.58-0.78h-1.72v6.83h1.46    c1.61,0,2.86-0.32,3.76-0.95C272.93,9.84,273.38,8.96,273.38,7.81z"/>			<path fill="#231F20" d="M291.05,24.31h-5.99V0h5.99V24.31z"/>			<path fill="#231F20" d="M174.42,24.31v-9.89h-11.27v9.89h-5.99V0h5.99v9.53h11.27V0h5.99v24.31H174.42z"/>			<path fill="#231F20" d="M197.31,15.48v8.83h-5.99v-8.83l-8-15.48h6.39l4.6,10.22L198.92,0h6.39L197.31,15.48z"/>			<path fill="#231F20" d="M224.51,24.31h-5.77l-4.75-13.62l-0.73,13.62h-5.88L209.21,0h5.4l7.01,18.87L228.63,0h5.4l1.83,24.31    h-5.88l-0.73-13.62L224.51,24.31z"/>			<path fill="#231F20" d="M240.5,0h15.15v4.75h-9.16v4.89h8.73v4.75h-8.73v5.18h9.27v4.75H240.5V0z"/>		</g>		<g>			<g>				<path fill="#231F20" d="M261.88,35.4v19.54h8.93v4.74h-14.91V35.4H261.88z"/>				<path fill="#231F20" d="M174.27,59.68h-5.76l-4.74-13.6l-0.73,13.6h-5.87L159,35.4h5.39l7,18.84l7-18.84h5.39l1.82,24.28h-5.87     l-0.73-13.6L174.27,59.68z"/>				<path fill="#231F20" d="M190.23,35.4h15.13v4.74h-9.15v4.88h8.71v4.74h-8.71v5.18h9.26v4.74h-15.24V35.4z"/>				<path fill="#231F20" d="M227.49,35.4v4.27h-6.52v20.01h-5.98V39.67h-6.52V35.4H227.49z"/>				<path fill="#231F20" d="M244.47,54.98h-9.29l-1.49,4.7h-6.16l9.04-24.28h6.56l9.04,24.28H246L244.47,54.98z M236.71,50.24h6.23     L239.84,40L236.71,50.24z"/>			</g>			<path fill="#231F20" d="M291.05,52.37c0,1.06-0.21,2.05-0.63,2.97c-0.42,0.93-1.03,1.73-1.82,2.41    c-0.79,0.68-1.75,1.23-2.88,1.62c-1.13,0.4-2.41,0.59-3.86,0.59c-1.32,0-2.64-0.14-3.96-0.43c-1.32-0.29-2.55-0.71-3.68-1.26    l1.19-4.51c0.84,0.41,1.79,0.76,2.85,1.06c1.06,0.3,2.2,0.45,3.42,0.45c1.01,0,1.84-0.19,2.49-0.56    c0.65-0.37,0.97-0.98,0.97-1.82c0-0.6-0.28-1.15-0.85-1.64c-0.56-0.49-1.59-1.01-3.08-1.57c-2.35-0.89-4.07-1.9-5.15-3.05    c-1.08-1.14-1.62-2.6-1.62-4.38c0-2.33,0.76-4.11,2.29-5.33c1.53-1.23,3.63-1.84,6.33-1.84c1.37,0,2.68,0.15,3.93,0.45    c1.25,0.3,2.31,0.69,3.17,1.17l-1.01,4.43c-0.84-0.41-1.76-0.74-2.76-0.99c-1-0.25-2.02-0.38-3.08-0.38    c-0.89,0-1.6,0.15-2.14,0.45c-0.54,0.3-0.81,0.81-0.81,1.53c0,0.34,0.05,0.62,0.14,0.87c0.1,0.24,0.27,0.47,0.52,0.68    c0.25,0.22,0.61,0.43,1.06,0.65c0.46,0.22,1.03,0.47,1.73,0.76c1.01,0.41,1.96,0.84,2.85,1.3c0.89,0.46,1.66,0.99,2.31,1.59    c0.65,0.6,1.16,1.29,1.53,2.05C290.86,50.44,291.05,51.34,291.05,52.37z"/>		</g>	</g></g></svg>
