<svg xmlns="http://www.w3.org/2000/svg" xmlns:xlink="http://www.w3.org/1999/xlink" id="Layer_1" x="0px" y="0px" viewBox="0 0 294.7 100.3" xml:space="preserve">
              <g>
              <path fill="#006FBA" d="M41.5,68l-5.6-11.8H23.8l11.6,24.6l-3.3,7.1c-0.4,0.9-1.3,1.4-2.3,1.4H11V11.7h18.7l5.1-11H0v99.6h32.7   c3.4,0,6.5-2,8-5.1l2.8-6l15.7-33.1H47.1L41.5,68z"></path>
              <path fill="#006FBA" d="M48.8,0c-3.4,0-6.5,1.9-8,5.1L22.3,44.1h12.1L40,32.3l5.6,11.8h12.1L46,19.5l3.3-7.1   c0.4-0.9,1.3-1.5,2.3-1.5h18.8v77.6H51.8l-5.1,11h34.8V0H48.8z"></path>
              </g>
              <path fill="#21294E" d="M285.1,13.4h7.5v36.4h-7.5V13.4z M248.9,49.8V13.4h17.6c4,0,6.9,0.8,8.8,2.5c1.9,1.7,2.9,4.3,2.9,7.8  c0,2.2-0.5,4.1-1.4,5.6c-0.9,1.5-2.3,2.5-4,3c1.6,0.6,2.7,1.4,3.4,2.6c0.7,1.2,1,2.9,1.1,5.4l0.1,4.3v0.1c0.1,2.2,0.5,3.5,1.4,4v1.1  h-8.2c-0.3-0.5-0.5-1.1-0.6-1.9c-0.1-0.8-0.2-1.6-0.3-2.7l-0.1-3.8c-0.1-2.3-0.5-3.8-1.3-4.6c-0.8-0.8-2.2-1.2-4.1-1.2h-7.9v14.2  H248.9z M256.4,29.4h8.8c1.9,0,3.3-0.4,4.2-1.2c0.9-0.8,1.3-2,1.3-3.7c0-1.6-0.4-2.8-1.3-3.6c-0.9-0.8-2.2-1.2-3.9-1.2h-9.1V29.4z   M215.5,49.8V13.4h26.4v6.3h-19v7.8h17.4v6.2h-17.4v9.4h19.9v6.7H215.5z M171.4,49.8V13.4h11.1l7.2,27.7l7.1-27.7h11.1v36.4h-7V20.5  l-7.4,29.4h-7.7l-7.5-29.4v29.4H171.4z M155.9,49.8h-7.5V36.3l-13.2-22.8h9.2l7.8,15.7l7.2-15.7h8.5l-12,22.8V49.8z M102,49.8V13.4  h7.5V27h15V13.4h7.5v36.4h-7.5V33.7h-15v16.1H102z"></path>
              <g>
              <path fill="#21294E" d="M113.3,77.8v-3.9h9.7v9.3c-0.9,1-2.3,1.8-4.1,2.5c-1.8,0.7-3.6,1.1-5.4,1.1c-2.3,0-4.4-0.5-6.1-1.5   c-1.7-1-3-2.5-3.9-4.4c-0.9-1.9-1.3-4-1.3-6.2c0-2.4,0.5-4.6,1.5-6.5c1-1.9,2.4-3.3,4.3-4.3c1.4-0.8,3.2-1.2,5.3-1.2   c2.8,0,4.9,0.6,6.5,1.8c1.6,1.2,2.6,2.9,3,5l-4.5,0.9c-0.3-1.1-0.9-2-1.8-2.7c-0.9-0.7-1.9-1-3.2-1c-2,0-3.5,0.7-4.7,2   c-1.2,1.3-1.7,3.2-1.7,5.8c0,2.8,0.6,4.8,1.8,6.2c1.2,1.4,2.7,2.1,4.6,2.1c0.9,0,1.9-0.2,2.8-0.6c0.9-0.4,1.8-0.9,2.4-1.4v-3H113.3   z"></path>
              <path fill="#21294E" d="M146.9,86.4V63.1h9.5c2.4,0,4.1,0.2,5.2,0.6c1.1,0.4,1.9,1.2,2.6,2.2c0.6,1.1,1,2.3,1,3.7   c0,1.7-0.5,3.2-1.5,4.3c-1,1.1-2.4,1.9-4.4,2.2c1,0.6,1.8,1.2,2.4,2c0.6,0.7,1.5,2,2.6,3.8l2.7,4.5h-5.4l-3.2-5.1   c-1.2-1.8-1.9-3-2.4-3.4c-0.4-0.5-0.9-0.8-1.4-1c-0.5-0.2-1.2-0.3-2.3-0.3h-0.9v9.7H146.9z M151.4,72.9h3.3c2.2,0,3.5-0.1,4-0.3   c0.5-0.2,1-0.5,1.3-1c0.3-0.5,0.5-1,0.5-1.7c0-0.8-0.2-1.4-0.6-1.9c-0.4-0.5-1-0.8-1.7-0.9c-0.4-0.1-1.5-0.1-3.3-0.1h-3.5V72.9z"></path>
              <path fill="#21294E" d="M188.3,74.9c0-2.4,0.3-4.4,1-6c0.5-1.2,1.2-2.3,2.1-3.2c0.9-0.9,1.8-1.6,2.9-2.1c1.4-0.6,3-0.9,4.8-0.9   c3.3,0,5.9,1.1,7.9,3.2c2,2.1,3,5.1,3,8.9c0,3.8-1,6.7-2.9,8.8c-2,2.1-4.6,3.2-7.8,3.2c-3.3,0-5.9-1.1-7.9-3.2   C189.3,81.5,188.3,78.6,188.3,74.9z M192.9,74.7c0,2.6,0.6,4.6,1.7,6c1.2,1.4,2.6,2,4.4,2s3.3-0.7,4.4-2c1.1-1.4,1.7-3.4,1.7-6.1   c0-2.7-0.6-4.7-1.7-6c-1.1-1.3-2.6-2-4.5-2c-1.9,0-3.3,0.7-4.5,2C193.5,70,192.9,72,192.9,74.7z"></path>
              <path fill="#21294E" d="M233.2,63.1h4.5v12.6c0,2,0.1,3.3,0.2,3.9c0.2,1,0.7,1.7,1.4,2.3c0.7,0.6,1.7,0.9,3,0.9   c1.3,0,2.2-0.3,2.9-0.8c0.6-0.5,1-1.2,1.2-2c0.1-0.8,0.2-2.1,0.2-4V63.1h4.5v12.2c0,2.8-0.1,4.8-0.4,5.9c-0.2,1.2-0.7,2.1-1.3,2.9   c-0.7,0.8-1.5,1.4-2.6,1.9c-1.1,0.5-2.5,0.7-4.3,0.7c-2.1,0-3.7-0.3-4.8-0.8c-1.1-0.5-2-1.2-2.6-2c-0.6-0.8-1.1-1.7-1.3-2.6   c-0.3-1.3-0.4-3.3-0.4-5.9V63.1z"></path>
              <path fill="#21294E" d="M275.5,86.4V63.1h7.2c2.7,0,4.5,0.1,5.3,0.3c1.3,0.3,2.3,1.1,3.2,2.3c0.9,1.2,1.3,2.7,1.3,4.5   c0,1.4-0.2,2.6-0.7,3.6c-0.5,1-1.1,1.7-1.9,2.3c-0.8,0.6-1.5,0.9-2.3,1.1c-1.1,0.2-2.6,0.3-4.7,0.3H280v8.8H275.5z M280,67v6.6h2.5   c1.8,0,3-0.1,3.6-0.4c0.6-0.2,1.1-0.6,1.4-1.1c0.3-0.5,0.5-1.1,0.5-1.8c0-0.8-0.2-1.5-0.7-2.1c-0.5-0.6-1.1-0.9-1.8-1   c-0.5-0.1-1.6-0.2-3.2-0.2H280z"></path>
              </g>
              </svg>