<svg xmlns="http://www.w3.org/2000/svg" xmlns:xlink="http://www.w3.org/1999/xlink" id="Layer_1" x="0px" y="0px" viewBox="0 0 295.9 99.6" xml:space="preserve">
              <!-- SVG content truncated for brevity -->
              <g>
                <g>
                <path fill-rule="evenodd" fill="#ffffffff" d="M22.8,7.9l7.5,14.3c28.9-20.3,70.4,11.6,44.2,50.5l2.1,18.9l-7.5-14.3    c-16.7,11.7-39.7,6.1-49.2-11.8c-8.1-15.3-3.1-26.2,4.7-39.3L22.8,7.9z M24.2,68.4L33.1,24h0.7l14.6,25.6v0h0l1.4,2.5l15.5-28h0.8    l9,44.5h-9.8l-3.6-19.7L49.9,70L39.6,52.7v0h0l-2.5-4.2l-3.8,20H24.2z M57,92 M53.5,92.4l-0.9,6.5c-0.1,0.4-0.4,0.7-0.8,0.7    L44,99.3c-0.3,0-0.5-0.1-0.6-0.4v0h0c-0.3-0.7-0.3-2.5-0.5-6.8c-0.7-0.1-1.3-0.2-2-0.4v-0.1h-0.2c-0.3-0.1-0.7-0.2-1-0.2v-0.1    h-0.3c-0.3-0.1-0.6-0.2-1-0.3v-0.1h-0.2c-0.7-0.2-1.3-0.4-2-0.6v0h0c-0.5-0.2-1-0.4-1.6-0.6v-0.1h-0.2c-0.3-0.1-0.5-0.2-0.8-0.3v0    h0c-0.2-0.1-0.4-0.2-0.6-0.3V89h-0.1c-0.3-0.1-0.7-0.3-1-0.4c-0.1,0.1-2.1,2.7-3.3,4.2h0v0c-0.5,0.6-0.9,1.1-0.9,1.1    c-0.7,0.4-0.8,0-7.4-4.2c-0.1,0-0.1-0.1-0.1-0.1v0h0c-0.5-0.5,0.1-1.4,2.8-6.7c-0.1-0.1-0.3-0.3-0.6-0.5v0h0    c-0.6-0.5-1.5-1.4-2.5-2.5v0h0c-1.7-1.7-3.6-4-5-5.9l-6.1,2.5c-0.3,0.1-0.8,0-1-0.4L4,69.1c-0.4-0.8,0.3-1,5.7-4.6    c-0.1-0.4-0.3-0.8-0.4-1.2v-0.2H9.2C9.1,62.9,9,62.6,9,62.4v-0.2H8.9c-0.1-0.3-0.2-0.6-0.3-0.8v-0.1h0c-0.1-0.3-0.2-0.7-0.3-1V60    H8.3c-0.2-0.9-0.4-1.7-0.6-2.6v-0.2h0c-0.1-0.6-0.2-1.1-0.3-1.7v-0.5H7.3c-0.1-0.5-0.1-1.1-0.2-1.6l-6.5-0.9    c-0.3,0-0.7-0.4-0.7-0.8l0.3-7.8c0-0.9,0.8-0.7,7.3-1.1c0-0.2,0.1-0.4,0.1-0.7h0v-0.1c0.1-0.4,0.1-0.8,0.2-1.1H8v-0.4    c0.1-0.4,0.2-0.8,0.3-1.2h0V39c0.1-0.4,0.2-0.8,0.3-1.1h0v0C8.8,37.2,9,36.6,9.2,36h0.1v-0.2c0.1-0.3,0.2-0.5,0.3-0.8h0v-0.1    c0.2-0.5,0.4-1,0.6-1.5h0.1v-0.1c0.2-0.5,0.4-1,0.6-1.4h0v0l0.1-0.2l-5.2-4c-0.3-0.2-0.4-0.7-0.2-1c0.2-0.3,4.2-6.7,4.4-6.9    c0.6-0.3,0.6-0.1,6.6,2.9c0.9-1.1,3.3-8.7,5-12.5h0v0c0.5-1.1,0.9-1.8,1.2-2.1c0,0,0.1-0.1,0.1-0.1h0v0c0.7-0.6,2.5-1.4,7.1-3.8    c0.8-0.4,1,0.3,4.6,5.7c0.3-0.1,0.5-0.2,0.8-0.3h0.2V9.4c0.3-0.1,0.5-0.2,0.8-0.3h0.2V9C36.7,9,37,8.9,37.3,8.8h0.1v0    c0.3-0.1,0.7-0.2,1-0.3h0.3V8.4c0.8-0.2,1.6-0.4,2.4-0.6h0.1v0c0.5-0.1,1.1-0.2,1.6-0.3h0.6V7.4c0.6-0.1,1.2-0.2,1.8-0.2h0.1v0    l0.5,0l0.9-6.5C46.7,0.3,47.1,0,47.5,0l7.8,0.3c0.9,0,0.7,0.8,1.1,7.3c0.4,0.1,0.8,0.1,1.2,0.2v0h0.3c0.4,0.1,0.9,0.2,1.3,0.3v0    h0.1c0.4,0.1,0.8,0.2,1.2,0.3v0h0.1c0.7,0.2,1.4,0.4,2.1,0.6v0h0c0.5,0.2,1,0.4,1.6,0.5v0.1h0.2c0.2,0.1,0.5,0.2,0.7,0.3v0h0.1    c0.5,0.2,1,0.4,1.5,0.6v0h0c0.2,0.1,0.4,0.2,0.7,0.3c0.1-0.2,4-5.2,4.2-5.4c0.7-0.4,0.8,0,7.4,4.2c0.8,0.5,0.2,1.1-2.6,6.9    c2.8,2.3,5.2,4.7,8.1,9l6.1-2.5c0.3-0.1,0.5-0.1,0.7,0.2v0h0c0.6,0.6,1.4,2.4,3.9,7.1c0.4,0.8-0.3,1-5.7,4.6    c0.3,0.8,0.6,1.7,0.9,2.6v0.3h0.1c0.1,0.3,0.2,0.6,0.2,0.8v0.1h0c0.2,0.8,0.4,1.6,0.6,2.5v0.1h0c0.1,0.5,0.2,1.1,0.3,1.6v0.6h0.1    c0.1,0.6,0.2,1.1,0.2,1.7v0.2h0c0,0.3,0.1,0.6,0.1,0.9l6.5,0.9c0.3,0,0.7,0.4,0.7,0.8L99,55.8l0,0h0V56c-0.1,0.8-1.3,0.6-7.3,1    c-0.1,0.5-0.2,1-0.3,1.4h-0.1v0.3c-0.1,0.3-0.1,0.7-0.2,1h-0.1v0.4c-0.1,0.4-0.2,0.8-0.3,1.2h0v0.1c-0.3,0.9-0.5,1.9-0.9,2.8h-0.1    v0.2c-0.1,0.2-0.2,0.5-0.3,0.7h-0.1v0.1c-0.2,0.5-0.4,1-0.6,1.4h-0.1v0.1c-0.2,0.4-0.4,0.8-0.6,1.2l5.2,4c0.7,0.6,0.2,1-4,7.7    c-0.5,0.8-1.1,0.2-6.9-2.6c-1.2,1.4-4.7,13.3-6.1,14.6c-0.1,0.1-0.2,0.2-0.3,0.3h0v0c-0.8,0.6-2.7,1.5-6.9,3.7    c-0.1,0.1-0.2,0.1-0.3,0.1h0c-0.6,0-1.2-1.3-4.2-5.8c-0.4,0.2-0.8,0.3-1.2,0.4h-0.2v0.1c-0.2,0.1-0.5,0.2-0.7,0.2h-0.2v0.1    c-0.3,0.1-0.6,0.2-0.8,0.2h-0.1v0c-0.3,0.1-0.7,0.2-1,0.3h-0.2v0.1c-0.9,0.2-1.8,0.4-2.6,0.6"></path>
                </g>
                <g>
                <path fill="#ffffffff" d="M85.5,83.9v0.4h-1.3v3.3h-0.5v-3.3h-1.3v-0.4H85.5z"></path>
                <path fill="#ffffffff" d="M88.7,84.2c0.3,0.3,0.4,0.5,0.4,0.9h-0.5c-0.1-0.2-0.2-0.4-0.3-0.6c-0.2-0.1-0.4-0.2-0.7-0.2    c-0.4,0-0.7,0.1-0.9,0.4c-0.2,0.3-0.3,0.7-0.3,1.2c0,0.4,0.1,0.8,0.3,1.1c0.2,0.3,0.5,0.4,0.9,0.4c0.4,0,0.7-0.1,0.9-0.4    c0.1-0.2,0.2-0.4,0.2-0.6h0.5c0,0.4-0.2,0.7-0.4,1c-0.3,0.3-0.7,0.5-1.2,0.5c-0.4,0-0.8-0.1-1.1-0.4c-0.4-0.4-0.6-0.9-0.6-1.6    c0-0.6,0.1-1,0.4-1.4c0.3-0.4,0.8-0.6,1.3-0.6C88.1,83.8,88.5,83.9,88.7,84.2z"></path>
                </g>
                </g>
                <g>
                <path fill="#ffffffff" d="M145.1,16.6l9.6,36.5H150l-5.8-22.3l-10,23.6l-10-23.8l-5.9,22.5h-4.7l9.6-36.5l11,26.1L145.1,16.6z"></path>
                <path fill="#ffffffff" d="M159.2,18h19.4v4.8H164v8.7h14.7v4.7H164v12h14.7v4.7h-19.4V18z"></path>
                <path fill="#ffffffff" d="M184.2,18h4.7v35h-4.7V18z"></path>
                <path fill="#ffffffff" d="M218,22l-3.9,3.1c-1-1.1-2-1.9-2.8-2.4c-0.8-0.5-2-0.8-3.6-0.8c-1.7,0-3.1,0.4-4.2,1.2   c-1.1,0.8-1.6,1.8-1.6,3c0,1.1,0.5,2,1.4,2.8c0.9,0.8,2.5,1.7,4.8,2.7c2.2,1,4,1.9,5.3,2.7c1.3,0.8,2.3,1.8,3.1,2.8   c0.8,1,1.4,2.1,1.8,3.2c0.4,1.1,0.6,2.3,0.6,3.5c0,2.9-1.1,5.4-3.2,7.4c-2.1,2.1-4.7,3.1-7.7,3.1c-2.9,0-5.5-0.8-7.8-2.4   c-2.2-1.6-4-4-5.2-7.2l4.8-1.3c1.7,3.9,4.4,5.9,8,5.9c1.7,0,3.2-0.5,4.3-1.6c1.2-1,1.7-2.4,1.7-3.9c0-1-0.3-1.9-0.9-2.9   c-0.6-1-1.4-1.7-2.3-2.4c-0.9-0.6-2.3-1.3-4.3-2.1c-2-0.8-3.5-1.5-4.5-2.2c-1.1-0.7-2-1.5-2.7-2.4c-0.8-0.9-1.3-1.8-1.7-2.8   c-0.4-0.9-0.5-1.9-0.5-2.9c0-2.5,1-4.6,3-6.4c2-1.8,4.5-2.7,7.3-2.7c1.9,0,3.8,0.4,5.8,1.2C215.1,19,216.7,20.3,218,22z"></path>
                <path fill="#ffffffff" d="M222.6,18H244v4.8h-8.4v30.2H231V22.8h-8.3V18z"></path>
                <path fill="#ffffffff" d="M249,18h19.4v4.8h-14.7v8.7h14.7v4.7h-14.7v12h14.7v4.7H249V18z"></path>
                <path fill="#ffffffff" d="M274.8,18h7.6c3.8,0,6.8,0.9,9.2,2.8c2.4,1.9,3.6,4.3,3.6,7.2c0,2.3-0.8,4.4-2.3,6.2   c-1.5,1.8-3.9,3.1-7.2,3.8l10.2,15h-5.5l-9.7-14.4h-1.1v14.4h-4.8V18z M279.6,22.3v12.2c7.1,0.1,10.6-1.9,10.6-6.1   c0-1.5-0.4-2.7-1.2-3.6c-0.8-0.9-1.9-1.6-3.3-1.9S282.3,22.3,279.6,22.3z"></path>
                </g>
                <g>
                <path fill="#ffffffff" d="M113.7,59.6h11.5v2.6h-4.5V79h-2.5V62.3h-4.5V59.6z"></path>
                <path fill="#ffffffff" d="M129.2,66.5v2.6c0.6-1,1.1-1.8,1.7-2.2c0.5-0.5,1.3-0.7,2.1-0.7c0.2,0,0.6,0.1,1.1,0.2l-0.8,2.6   c-0.5-0.1-0.8-0.2-1-0.2c-0.9,0-1.6,0.3-2.2,0.9c-0.6,0.6-0.9,1.4-0.9,2.3V79h-2.6V66.5H129.2z"></path>
                <path fill="#ffffffff" d="M146.5,66.5h2.6V79h-2.6v-2.5c-1.3,1.9-2.8,2.8-4.7,2.8c-1.6,0-3-0.6-4.1-1.9c-1.1-1.3-1.7-2.9-1.7-4.7   c0-1.8,0.6-3.3,1.7-4.6c1.2-1.3,2.5-2,4.1-2c1,0,1.9,0.3,2.7,0.8s1.5,1.2,2,2.1V66.5z M146.8,72.8c0-1.1-0.4-2.1-1.2-2.9   c-0.8-0.8-1.8-1.2-2.9-1.2c-1.1,0-2,0.4-2.8,1.2c-0.8,0.8-1.2,1.8-1.2,2.9c0,1.2,0.4,2.2,1.2,3c0.8,0.8,1.8,1.2,2.9,1.2   c1.1,0,2.1-0.4,2.9-1.2C146.4,74.9,146.8,73.9,146.8,72.8z"></path>
                <path fill="#ffffffff" d="M152.4,62.3c0-0.5,0.2-1,0.6-1.4c0.4-0.4,0.9-0.6,1.4-0.6c0.5,0,1,0.2,1.4,0.6s0.6,0.9,0.6,1.4   c0,0.6-0.2,1-0.6,1.4c-0.4,0.4-0.9,0.6-1.4,0.6c-0.5,0-1-0.2-1.4-0.6C152.6,63.4,152.4,62.9,152.4,62.3z M153.2,66.5h2.5V79h-2.5   V66.5z"></path>
                <path fill="#ffffffff" d="M159.1,79V66.5h2.5v2.1c0.7-0.8,1.4-1.5,2-1.8c0.6-0.4,1.3-0.6,2-0.6c1.1,0,2.1,0.4,2.8,1.1   s1.2,1.7,1.2,2.7V79h-2.6v-8.3c0-0.7-0.2-1.2-0.6-1.7c-0.4-0.4-1-0.7-1.6-0.7c-0.9,0-1.6,0.4-2.2,1.1c-0.6,0.7-0.9,1.6-0.9,2.7V79   H159.1z"></path>
                <path fill="#ffffffff" d="M172.4,62.3c0-0.5,0.2-1,0.6-1.4c0.4-0.4,0.9-0.6,1.4-0.6c0.5,0,1,0.2,1.4,0.6c0.4,0.4,0.6,0.9,0.6,1.4   c0,0.6-0.2,1-0.6,1.4c-0.4,0.4-0.9,0.6-1.4,0.6c-0.5,0-1-0.2-1.4-0.6C172.6,63.4,172.4,62.9,172.4,62.3z M173.1,66.5h2.5V79h-2.5   V66.5z"></path>
                <path fill="#ffffffff" d="M179,79V66.5h2.5v2.1c0.7-0.8,1.4-1.5,2-1.8c0.6-0.4,1.3-0.6,2-0.6c1.1,0,2.1,0.4,2.8,1.1s1.2,1.7,1.2,2.7   V79H187v-8.3c0-0.7-0.2-1.2-0.6-1.7c-0.4-0.4-1-0.7-1.6-0.7c-0.9,0-1.6,0.4-2.2,1.1c-0.6,0.7-0.9,1.6-0.9,2.7V79H179z"></path>
                <path fill="#ffffffff" d="M203,66.5h2.5v12c0,1.8-0.6,3.3-1.8,4.5c-1.2,1.2-2.6,1.9-4.3,1.9c-1.3,0-2.5-0.4-3.5-1.1   c-1.1-0.7-1.9-1.8-2.4-3.3h2.7c0.8,1.4,1.9,2,3.3,2c1,0,1.8-0.4,2.5-1.1c0.7-0.7,1-1.6,1-2.6v-2.4c-1.2,1.9-2.8,2.8-4.7,2.8   c-1.6,0-2.9-0.7-4.1-2c-1.2-1.3-1.7-2.9-1.7-4.7c0-1.8,0.6-3.4,1.7-4.6s2.5-1.9,4-1.9c2,0,3.6,1,4.8,3V66.5z M203.3,72.7   c0-1.2-0.4-2.2-1.2-2.9c-0.8-0.8-1.8-1.2-3-1.2c-1.1,0-2,0.4-2.8,1.2c-0.8,0.8-1.2,1.8-1.2,2.8c0,1.2,0.4,2.2,1.2,3   c0.8,0.8,1.8,1.3,2.9,1.3c1.1,0,2.1-0.4,2.9-1.2C202.9,74.9,203.3,73.9,203.3,72.7z"></path>
                <path fill="#ffffffff" d="M233.4,60.3v3c-2-1-3.9-1.5-5.6-1.5c-2.2,0-4,0.7-5.5,2.2c-1.5,1.5-2.3,3.2-2.3,5.4c0,2.2,0.8,4,2.3,5.4   c1.5,1.4,3.5,2.2,5.8,2.2c1.7,0,3.5-0.5,5.3-1.6v3c-1.7,0.9-3.6,1.4-5.6,1.4c-2.9,0-5.4-1-7.5-3c-2.1-2-3.1-4.5-3.1-7.3   c0-2.8,1-5.2,3.1-7.2c2-2,4.5-3,7.4-3C229.6,59,231.5,59.5,233.4,60.3z"></path>
                <path fill="#ffffffff" d="M248.5,73.3H238c0.2,1.3,0.7,2.2,1.5,2.8c0.8,0.6,1.7,0.9,2.6,0.9c1.5,0,2.7-0.6,3.7-1.9l1.9,1.5   c-1.4,1.9-3.3,2.8-5.7,2.8c-1.8,0-3.3-0.6-4.6-1.9c-1.2-1.3-1.8-2.9-1.8-4.8c0-1.8,0.6-3.3,1.9-4.6c1.2-1.3,2.8-2,4.5-2   c1.8,0,3.3,0.7,4.5,2C247.9,69.4,248.5,71.1,248.5,73.3z M238.3,71.1h7.5c-0.8-1.7-2.1-2.6-3.7-2.6   C240.3,68.6,239.1,69.4,238.3,71.1z"></path>
                <path fill="#ffffffff" d="M251,79V66.5h2.5v2.1c0.7-0.8,1.4-1.5,2-1.8c0.6-0.4,1.3-0.6,2-0.6c1.1,0,2.1,0.4,2.8,1.1s1.2,1.7,1.2,2.7   V79h-2.6v-8.3c0-0.7-0.2-1.2-0.6-1.7c-0.4-0.4-1-0.7-1.6-0.7c-0.9,0-1.6,0.4-2.2,1.1c-0.6,0.7-0.9,1.6-0.9,2.7V79H251z"></path>
                <path fill="#ffffffff" d="M265.6,62.8h2.6v3.6h2.5v2.4h-2.5V79h-2.6V68.9h-2v-2.4h2V62.8z"></path>
                <path fill="#ffffffff" d="M285.2,73.3h-10.4c0.2,1.3,0.7,2.2,1.5,2.8c0.8,0.6,1.7,0.9,2.6,0.9c1.5,0,2.7-0.6,3.7-1.9l1.9,1.5   c-1.4,1.9-3.3,2.8-5.7,2.8c-1.8,0-3.3-0.6-4.6-1.9s-1.8-2.9-1.8-4.8c0-1.8,0.6-3.3,1.9-4.6c1.2-1.3,2.8-2,4.5-2   c1.8,0,3.3,0.7,4.5,2C284.6,69.4,285.2,71.1,285.2,73.3z M275,71.1h7.5c-0.8-1.7-2.1-2.6-3.7-2.6C277,68.6,275.8,69.4,275,71.1z"></path>
                <path fill="#ffffffff" d="M291,66.5v2.6c0.6-1,1.1-1.8,1.7-2.2c0.5-0.5,1.3-0.7,2.1-0.7c0.2,0,0.6,0.1,1.1,0.2l-0.8,2.6   c-0.5-0.1-0.8-0.2-1-0.2c-0.9,0-1.6,0.3-2.2,0.9c-0.6,0.6-0.9,1.4-0.9,2.3V79h-2.6V66.5H291z"></path>
                </g>
          </svg>