<svg xmlns="http://www.w3.org/2000/svg" xmlns:xlink="http://www.w3.org/1999/xlink" id="Layer_1" x="0px" y="0px" viewBox="0 0 294.7 100.3" xml:space="preserve">
              <g>
              <path fill="#DA2128" d="M58.2,56.1H36.9V30.9v-1.7h0c0-1.5-1.3-2.8-2.8-2.8h0c-0.1,0-0.2,0-0.3,0c0,0,0,0-0.1,0c-0.1,0-0.2,0-0.3,0   c0,0,0,0,0,0c-0.1,0-0.2,0.1-0.3,0.1c0,0,0,0,0,0c-0.1,0-0.2,0.1-0.3,0.1l0,0c0,0-0.1,0-0.1,0c0,0,0,0,0,0   c-9.6,5.2-16.1,15.4-16.2,27c0,0.1,0,0.2,0,0.3c0,0.1,0,0.2,0,0.3c0.1,11,6,20.6,14.8,26v11.2v4.7v0v0v0.1h0   c0.1,1.5,1.3,2.6,2.8,2.6c1.5,0,2.7-1.2,2.8-2.6h0v-1.8V83.1v-4.3c0-1.1-0.6-2-1.5-2.5l0,0C27.5,72,22.2,63.6,22.2,54   c0-7.9,3.6-14.9,9.2-19.5l0,24.4c0,1.5,1.3,2.8,2.8,2.8h27.1v0c1.5-0.1,2.6-1.3,2.6-2.8l0-24.4C69.4,39.1,73,46.2,73,54   c0,9.6-5.4,18-13.3,22.3l0,0c-0.9,0.5-1.5,1.4-1.5,2.5v4.3v11.7v1.8h0c0.1,1.5,1.3,2.6,2.8,2.6c0.4,0,0.8-0.1,1.2-0.3l0.4-0.2   c0.7-0.5,1.2-1.3,1.2-2.1h0v-5V80.4c8.9-5.5,14.8-15.2,14.8-26.4c0-11.8-6.5-22-16.2-27.2c0,0,0,0,0,0c0,0,0,0-0.1,0   c-0.4-0.2-0.8-0.3-1.3-0.3c-1.5,0-2.8,1.3-2.8,2.8L58.2,56.1z"></path>
              <path fill="#DA2128" d="M92.4,26.3L49.3,1.5c-1-0.6-2.4-0.6-3.4,0L2.7,26.3C1.7,26.9,1,28,1,29.3l0,49.5c0,1.2,0.7,2.4,1.7,3   l23,13.1v-6.4L6.6,77.5l0-47L47.6,7l41,23.5l0,47L69.4,88.4v6.4l23-13.1c1.1-0.6,1.7-1.8,1.7-3l0-49.5   C94.1,28.1,93.5,26.9,92.4,26.3"></path>
              </g>
              <g>
                <path fill="#DA2128" d="M126.9,53.2h-5.5c-1.1-5.5-4-10.1-6.2-15c0.1,5.5,0.2,11,0.3,16.6h-7V28.2h2.3c2,0,4,0,5.9,0   c0.3,0,0.7,0.2,0.8,0.4c1.9,3.6,3.8,7.2,5.7,10.9c0.3,0.6,0.5,1.2,0.9,2c0.2-0.5,0.4-0.9,0.6-1.3c2-3.8,4-7.7,6.1-11.5   c0.1-0.2,0.3-0.4,0.5-0.4c2.8,0,5.6,0,8.3,0c0,0,0.1,0,0.2,0.1v26.5h-6.9c0-2.8,0-5.7,0-8.5c0.1-2.8,0.2-5.7,0.3-8.7   C130.7,42.7,127.4,47.4,126.9,53.2"></path>
              <polygon fill="#DA2128" points="168,33.9 168,38.2 176.4,38.2 176.4,44 168,44 168,49.1 179.9,49.1 179.9,54.8 160.5,54.8    160.5,28.2 179.2,28.2 179.2,33.9  "></polygon>
              <path fill="#DA2128" d="M183.1,46.7c2.1,1.3,4.2,2.1,6.5,2.4c1.2,0.2,2.4,0.2,3.6,0.1c1.1-0.1,1.6-0.7,1.7-1.7   c0.1-0.9-0.3-1.6-1.2-2c-1.1-0.5-2.3-0.7-3.5-1.1c-1.3-0.5-2.6-0.8-3.7-1.5c-2.7-1.5-3.5-4.1-3.1-7c0.5-4.3,3.6-7.4,8.1-8   c3-0.4,6-0.2,8.8,1c0.4,0.2,0.6,0.4,0.6,0.9c0,1.7,0,3.5,0,5.2c-1.4-0.4-2.7-0.9-4.1-1.1c-1.5-0.2-3-0.4-4.5-0.3   c-1.1,0.1-1.6,0.9-1.7,1.8c-0.1,0.9,0.3,1.5,1.3,1.9c1.4,0.5,2.9,0.9,4.3,1.3c0.9,0.3,1.8,0.6,2.7,1.1c1.9,1,3.1,2.5,3.3,4.7   c0.4,3.2-0.2,6.1-2.7,8.4c-1.4,1.3-3.2,1.9-5,2.2c-3.2,0.5-6.3,0.3-9.3-1c-1.9-0.8-1.9-0.8-1.9-2.9V46.7z"></path>
              <path fill="#DA2128" d="M157.4,45.6c0,1.6-0.2,3.1-0.8,4.6c-0.9,2.4-2.6,3.9-5,4.6c-2.8,0.8-5.5,0.6-8.1-0.8   c-0.2-0.1-0.5-0.4-0.5-0.7c0-1.7,0-3.5,0-5.2c1,0.3,1.9,0.6,2.8,0.8c0.4,0.1,0.8,0.1,1.2,0.1c1.9-0.1,2.9-1,2.9-2.9   c0-5.6,0,0,0-16.8v-0.9h7.5L157.4,45.6z"></path>
              <path fill="#DA2128" d="M265.9,40.2c1.1,0.3,3.4,0.3,4.4,0c1.7-0.5,2.6-1.7,2.5-3.5c0-1.5-1-2.7-2.7-2.9c-1.4-0.2-2.8,0-4.2,0V40.2   z M282,49v5.8c-3.4,0.8-6.5,0.1-9-2.4c-1.7-1.7-3-3.7-4.2-5.8c-0.4-0.7-0.9-1-1.7-0.9c-0.4,0-0.7,0-1.1,0v9.1h-7.3V29.3   c1.6-0.4,3.2-0.9,4.9-1.2c3.3-0.6,6.6-0.7,9.9,0.2c3.2,0.9,5.7,2.8,6.6,6.2c1.1,4-0.5,7.4-4.2,9.2c-0.1,0.1-0.2,0.1-0.5,0.3   c1.1,1.3,2,2.7,3.1,3.9C279.3,48.9,280.6,49.1,282,49"></path>
              <polygon fill="#DA2128" points="205.5,28.3 212.9,28.3 212.9,38.3 222.1,38.3 222.1,28.3 229.5,28.3 229.5,54.8 222.1,54.8    222.1,44.6 212.9,44.6 212.9,54.8 205.5,54.8  "></polygon>
              <polygon fill="#DA2128" points="255.5,28.3 255.5,34.5 247.8,34.5 247.8,54.8 240.3,54.8 240.3,34.5 232.7,34.5 232.7,28.3  "></polygon>
              <rect x="285.1" y="28.3" fill="#DA2128" width="7.4" height="26.6"></rect>
              <path fill="#DA2128" d="M113.3,66.7c1.6,0,2.6,0.7,2.6,1.9c0,0.8-0.6,1.3-1.8,1.5l-4.1,0.7C110,68.1,111.3,66.7,113.3,66.7    M116,74.5l-0.7,0.2c-0.6,0.2-1.3,0.3-2,0.3c-1.8,0-3-1.1-3.3-2.9l4.3-0.7c2-0.3,2.9-1.2,2.9-2.8c0-2-1.5-3.2-4-3.2   c-3,0-4.8,2.1-4.8,5.4c0,3.4,1.8,5.5,4.8,5.5c0.8,0,1.6-0.1,2.4-0.3l0.7-0.2c0.1,0,0.2-0.1,0.2-0.2l-0.3-0.9   C116.2,74.5,116.1,74.5,116,74.5"></path>
              <path fill="#DA2128" d="M112.3,63.3c0,0.6-0.4,0.9-0.9,0.9c-0.6,0-0.9-0.4-0.9-0.9c0-0.6,0.3-0.9,0.9-0.9   C111.9,62.3,112.3,62.7,112.3,63.3"></path>
              <path fill="#DA2128" d="M115.6,63.3c0,0.6-0.4,0.9-0.9,0.9c-0.6,0-0.9-0.4-0.9-0.9c0-0.6,0.3-0.9,0.9-0.9   C115.3,62.3,115.6,62.7,115.6,63.3"></path>
              <path fill="#DA2128" d="M122.1,70.9c-1.6-0.4-2.4-1.3-2.4-2.7c0-1.8,1.4-2.8,3.7-2.8c1,0,1.9,0.1,2.6,0.3l0.9,0.3   c0.1,0,0.2,0.1,0.1,0.3l-0.2,0.8c0,0.1-0.1,0.2-0.3,0.1l-0.8-0.2c-0.6-0.2-1.4-0.3-2.2-0.3c-1.5,0-2.3,0.6-2.3,1.5   c0,0.8,0.4,1.2,1.4,1.5l2.5,0.7c1.7,0.4,2.5,1.4,2.5,2.8c0,1.9-1.5,3-4,3c-1.3,0-2.4-0.2-3.3-0.5l-0.6-0.2c-0.1,0-0.2-0.1-0.1-0.3   l0.3-0.9c0-0.1,0.1-0.2,0.2-0.1l0.6,0.2c0.7,0.3,1.7,0.4,2.9,0.4c1.6,0,2.6-0.7,2.6-1.7c0-0.8-0.5-1.3-1.5-1.6L122.1,70.9z"></path>
              <path fill="#DA2128" d="M131.7,64.8c0,0.9-0.1,1.5-0.2,2.2c0,0.2,0.1,0.3,0.3,0.1c0.7-1.1,1.9-1.8,3.5-1.8c2.4,0,3.9,1.6,3.9,4.2   v6.2c0,0.1-0.1,0.2-0.2,0.2h-1c-0.1,0-0.2-0.1-0.2-0.2v-6.1c0-1.9-1-3-2.6-3c-2.5,0-3.4,2.1-3.4,4.4v4.8c0,0.1-0.1,0.2-0.2,0.2h-1   c-0.1,0-0.2-0.1-0.2-0.2V60.8c0-0.1,0.1-0.2,0.2-0.2h1c0.1,0,0.2,0.1,0.2,0.2V64.8z"></path>
              <path fill="#DA2128" d="M146.8,65.6c0.1,0,0.2,0.1,0.2,0.2v0.9c0,0.1-0.1,0.2-0.2,0.2h-2.4v6.6c0,0.9,0.4,1.5,1.2,1.5   c0.2,0,0.4,0,0.6-0.1c0.1,0,0.2,0,0.3,0.1l0.4,0.8c0,0.1,0,0.2-0.1,0.3c-0.3,0.2-0.7,0.2-1.1,0.2c-1.6,0-2.6-1-2.6-2.8v-6.6h-1   c-0.1,0-0.2-0.1-0.2-0.2v-0.9c0-0.1,0.1-0.2,0.2-0.2h1V63c0-0.1,0-0.2,0.2-0.2l1.1-0.3c0.1,0,0.2,0,0.2,0.2v3H146.8z"></path>
              <path fill="#DA2128" d="M156,63.3c0,0.6-0.4,0.9-0.9,0.9c-0.6,0-0.9-0.3-0.9-0.9c0-0.6,0.3-0.9,0.9-0.9   C155.6,62.3,156,62.7,156,63.3 M152.6,63.3c0,0.6-0.4,0.9-0.9,0.9c-0.6,0-0.9-0.3-0.9-0.9c0-0.6,0.4-0.9,0.9-0.9   C152.3,62.3,152.6,62.7,152.6,63.3 M154.4,70.2c1.2-0.2,1.8-0.7,1.8-1.5c0-1.2-0.9-1.9-2.6-1.9c-2,0-3.3,1.4-3.3,4.2L154.4,70.2z    M156,75.9c-0.8,0.2-1.5,0.3-2.4,0.3c-3,0-4.8-2.1-4.8-5.5c0-3.3,1.8-5.4,4.8-5.4c2.5,0,4,1.2,4,3.2c0,1.5-1,2.4-2.9,2.8l-4.3,0.7   c0.3,1.8,1.5,2.9,3.3,2.9c0.7,0,1.4-0.1,2-0.3l0.7-0.2c0.1,0,0.2,0,0.3,0.2l0.3,0.9c0,0.1,0,0.2-0.2,0.2L156,75.9z"></path>
              <path fill="#DA2128" d="M167.4,74.5c0.7,0.3,1.3,0.5,2.2,0.5c2.1,0,3.3-1.5,3.3-4.2c0-2.6-1.2-4.1-3.2-4.1c-2.2,0-3.3,1.9-3.3,4.4   v3L167.4,74.5z M166.3,67.1c0,0.2,0.2,0.2,0.3,0c0.8-1.1,1.9-1.7,3.3-1.7c2.8,0,4.5,2.1,4.5,5.4c0,3.4-1.7,5.5-4.7,5.5   c-0.9,0-1.7-0.1-2.5-0.5l-0.7-0.3v5c0,0.1-0.1,0.2-0.2,0.2h-1c-0.1,0-0.2-0.1-0.2-0.2V65.8c0-0.1,0.1-0.2,0.2-0.2h0.7   c0.1,0,0.2,0.1,0.2,0.2L166.3,67.1z"></path>
              <path fill="#DA2128" d="M183.7,63.3c0,0.6-0.4,0.9-0.9,0.9c-0.6,0-0.9-0.4-0.9-0.9c0-0.6,0.3-0.9,0.9-0.9   C183.3,62.3,183.7,62.7,183.7,63.3 M180.3,63.3c0,0.6-0.4,0.9-0.9,0.9c-0.6,0-0.9-0.4-0.9-0.9c0-0.6,0.4-0.9,0.9-0.9   C180,62.3,180.3,62.7,180.3,63.3 M182.1,70.2c1.2-0.2,1.7-0.7,1.7-1.5c0-1.2-0.9-1.9-2.6-1.9c-2,0-3.3,1.4-3.3,4.2L182.1,70.2z    M183.7,75.9c-0.8,0.2-1.5,0.3-2.4,0.3c-3,0-4.8-2.1-4.8-5.5c0-3.3,1.8-5.4,4.8-5.4c2.5,0,4,1.2,4,3.2c0,1.5-1,2.4-2.9,2.8   l-4.3,0.7c0.3,1.8,1.5,2.9,3.3,2.9c0.7,0,1.4-0.1,2-0.3l0.7-0.2c0.1,0,0.2,0,0.3,0.2l0.3,0.9c0,0.1,0,0.2-0.2,0.2L183.7,75.9z"></path>
              <path fill="#DA2128" d="M193.4,66.5c0,0.1-0.1,0.2-0.2,0.2c-2.3,0.1-3.7,2.1-3.7,5.8v3.4c0,0.1-0.1,0.2-0.2,0.2h-1   c-0.1,0-0.2-0.1-0.2-0.2V65.8c0-0.1,0.1-0.2,0.2-0.2h0.7c0.1,0,0.2,0.1,0.2,0.2l0.2,1.6c0,0.2,0.2,0.2,0.3,0c0.8-1.3,1.9-2,3.6-2.1   c0.1,0,0.2,0.1,0.2,0.2V66.5z"></path>
              <path fill="#DA2128" d="M209.2,75.8c0.1,0.1,0,0.2-0.1,0.2h-1.2c-0.1,0-0.2,0-0.2-0.1l-1.9-2.5c-0.8-1-1.5-2-2.9-2h-0.5v4.4   c0,0.1-0.1,0.2-0.2,0.2h-1c-0.1,0-0.2-0.1-0.2-0.2V60.8c0-0.1,0.1-0.2,0.2-0.2h1c0.1,0,0.2,0.1,0.2,0.2v9.3h0.4   c1.2,0,2.1-1.1,2.9-2.1l1.8-2.3c0.1-0.1,0.1-0.1,0.2-0.1h1.2c0.2,0,0.2,0.1,0.1,0.2l-2.1,2.8c-0.7,0.9-1.5,1.7-2.2,2   c-0.1,0.1-0.2,0.1,0,0.2c0.8,0.3,1.6,1.1,2.3,2.1L209.2,75.8z"></path>
              <path fill="#DA2128" d="M217.7,63.3c0,0.6-0.4,0.9-0.9,0.9c-0.6,0-0.9-0.3-0.9-0.9c0-0.6,0.4-0.9,0.9-0.9   C217.4,62.3,217.7,62.7,217.7,63.3 M214.4,63.3c0,0.6-0.4,0.9-0.9,0.9c-0.6,0-0.9-0.3-0.9-0.9c0-0.6,0.4-0.9,0.9-0.9   C214,62.3,214.4,62.7,214.4,63.3 M216.2,70.2c1.2-0.2,1.7-0.7,1.7-1.5c0-1.2-0.9-1.9-2.6-1.9c-2,0-3.3,1.4-3.3,4.2L216.2,70.2z    M217.8,75.9c-0.8,0.2-1.5,0.3-2.4,0.3c-3,0-4.8-2.1-4.8-5.5c0-3.3,1.8-5.4,4.8-5.4c2.5,0,4,1.2,4,3.2c0,1.5-1,2.4-2.9,2.8   l-4.3,0.7c0.3,1.8,1.5,2.9,3.3,2.9c0.7,0,1.4-0.1,2-0.3l0.7-0.2c0.1,0,0.2,0,0.3,0.2l0.3,0.9c0,0.1,0,0.2-0.2,0.2L217.8,75.9z"></path>
              <path fill="#DA2128" d="M226.6,65.6c0.1,0,0.2,0.1,0.2,0.2v0.9c0,0.1-0.1,0.2-0.2,0.2h-2.4v6.6c0,0.9,0.4,1.5,1.2,1.5   c0.2,0,0.4,0,0.6-0.1c0.1,0,0.2,0,0.3,0.1l0.4,0.8c0,0.1,0,0.2-0.1,0.3c-0.3,0.2-0.7,0.2-1.1,0.2c-1.6,0-2.6-1-2.6-2.8v-6.6h-1   c-0.1,0-0.2-0.1-0.2-0.2v-0.9c0-0.1,0.1-0.2,0.2-0.2h1V63c0-0.1,0-0.2,0.2-0.2l1-0.3c0.1,0,0.2,0,0.2,0.2v3H226.6z"></path>
              <path fill="#DA2128" d="M230,70.8c0,2.6,1.2,4.2,3.3,4.2s3.4-1.6,3.4-4.2c0-2.6-1.3-4.1-3.4-4.1S230,68.2,230,70.8 M238.1,70.8   c0,3.4-1.8,5.5-4.8,5.5c-2.9,0-4.8-2.1-4.8-5.5c0-3.3,1.8-5.4,4.8-5.4C236.3,65.4,238.1,67.5,238.1,70.8"></path>
              <path fill="#DA2128" d="M248,74.5c0.7,0.3,1.3,0.5,2.2,0.5c2.1,0,3.3-1.5,3.3-4.2c0-2.6-1.2-4.1-3.2-4.1c-2.2,0-3.3,1.9-3.3,4.4v3   L248,74.5z M246.8,67.1c0,0.2,0.2,0.2,0.3,0c0.8-1.1,1.9-1.7,3.3-1.7c2.8,0,4.5,2.1,4.5,5.4c0,3.4-1.7,5.5-4.7,5.5   c-0.9,0-1.7-0.1-2.5-0.5l-0.7-0.3v5c0,0.1-0.1,0.2-0.2,0.2h-1c-0.1,0-0.2-0.1-0.2-0.2V65.8c0-0.1,0.1-0.2,0.2-0.2h0.7   c0.1,0,0.2,0.1,0.2,0.2L246.8,67.1z"></path>
              <path fill="#DA2128" d="M265.3,74.5c-0.1-0.2-0.2-0.2-0.3,0c-0.8,1.2-2,1.8-3.5,1.8c-2.4,0-3.9-1.6-3.9-4.2v-6.2   c0-0.1,0.1-0.2,0.2-0.2h1c0.1,0,0.2,0.1,0.2,0.2v6.1c0,1.9,1,3,2.6,3c2.2,0,3.4-1.6,3.4-4.4v-4.8c0-0.1,0.1-0.2,0.2-0.2h1   c0.1,0,0.2,0.1,0.2,0.2v10.1c0,0.1-0.1,0.2-0.2,0.2h-0.7c-0.1,0-0.2-0.1-0.2-0.2L265.3,74.5z"></path>
              <path fill="#DA2128" d="M271.1,67.1c0.1,0.2,0.2,0.2,0.3,0c0.8-1.2,2-1.8,3.5-1.8c2.4,0,3.9,1.6,3.9,4.2v6.2c0,0.1-0.1,0.2-0.2,0.2   h-1c-0.1,0-0.2-0.1-0.2-0.2v-6.1c0-1.9-1-3-2.6-3c-2.2,0-3.4,1.6-3.4,4.4v4.8c0,0.1-0.1,0.2-0.2,0.2h-1c-0.1,0-0.2-0.1-0.2-0.2   V65.8c0-0.1,0.1-0.2,0.2-0.2h0.7c0.1,0,0.2,0.1,0.2,0.2L271.1,67.1z"></path>
              <path fill="#DA2128" d="M288.6,63.3c0,0.6-0.4,0.9-0.9,0.9c-0.6,0-0.9-0.3-0.9-0.9c0-0.6,0.3-0.9,0.9-0.9   C288.2,62.3,288.6,62.7,288.6,63.3 M285.2,63.3c0,0.6-0.4,0.9-0.9,0.9c-0.6,0-0.9-0.3-0.9-0.9c0-0.6,0.4-0.9,0.9-0.9   C284.9,62.3,285.2,62.7,285.2,63.3 M287,70.2c1.2-0.2,1.7-0.7,1.7-1.5c0-1.2-0.9-1.9-2.6-1.9c-2,0-3.3,1.4-3.3,4.2L287,70.2z    M288.6,75.9c-0.8,0.2-1.5,0.3-2.4,0.3c-3,0-4.8-2.1-4.8-5.5c0-3.3,1.8-5.4,4.8-5.4c2.5,0,4,1.2,4,3.2c0,1.5-1,2.4-2.9,2.8   l-4.3,0.7c0.3,1.8,1.5,2.9,3.3,2.9c0.7,0,1.4-0.1,2-0.3l0.7-0.2c0.1,0,0.2,0,0.3,0.2l0.3,0.9c0,0.1,0,0.2-0.2,0.2L288.6,75.9z"></path>
              <path fill="#DA2128" d="M292.5,75.2c0,0.7-0.4,1.1-1.1,1.1c-0.7,0-1-0.4-1-1.1c0-0.7,0.4-1.1,1-1.1   C292.1,74.1,292.5,74.5,292.5,75.2"></path>
            </g>
          </svg>